<svg width="77" height="77" viewBox="0 0 77 77" fill="none" xmlns="http://www.w3.org/2000/svg">
<path fill-rule="evenodd" clip-rule="evenodd" d="M35.5 0H35.0076C32.868 0 31.1317 1.73108 31.1253 3.87065L31.1163 6.88366C31.1148 7.38946 30.7736 7.83113 30.2846 7.96035C27.7214 8.63751 25.1153 9.69952 22.8044 11.0086C22.4092 11.2324 22.0718 11.4156 22.0545 11.4156C22.0372 11.4156 20.7804 10.187 19.2615 8.68538C17.7313 7.17255 15.2687 7.17259 13.7386 8.68546L11.2727 11.1235L8.82343 13.5451C7.29432 15.057 7.29424 17.5265 8.82324 19.0385L11.1587 21.3479C11.4185 21.6048 11.4695 22.0057 11.2824 22.3195C9.8662 24.6942 8.72784 27.4041 7.99947 30.1345C7.90042 30.5057 7.56466 30.7645 7.1804 30.7656L3.91578 30.7752C1.7513 30.7815 0 32.5379 0 34.7024V35.9546H21.0942C21.2354 34.8214 21.4904 33.6927 21.8616 32.5839C22.7132 30.0403 24.1426 27.7646 26.1116 25.8178C28.7181 23.2406 31.8814 21.614 35.5 20.9843V0Z" fill="#3778C2"/>
<path fill-rule="evenodd" clip-rule="evenodd" d="M35.5001 77.0003V55.778C32.9671 55.3401 30.5106 54.341 28.3269 52.7784C26.736 51.64 25.2166 50.1074 24.122 48.5367C22.036 45.5437 20.9607 42.0459 20.9625 38.5005H0V41.9485C0 44.1125 1.7509 45.8686 3.91492 45.875L7.05377 45.8843C7.51164 45.8857 7.91161 46.1941 8.02929 46.6366C8.73856 49.304 9.88047 52.0586 11.2419 54.3866C11.4455 54.7348 11.3887 55.1765 11.1036 55.4618L8.81652 57.7504C7.28609 59.2818 7.28681 61.764 8.81811 63.2945L11.2752 65.7504L13.7284 68.2025C15.2598 69.7332 17.7437 69.7272 19.2677 68.1891L21.5141 65.9218C21.8179 65.6152 22.291 65.5538 22.663 65.7726C23.4738 66.2494 25.4165 67.2158 26.2955 67.5796C27.7187 68.1685 28.8285 68.548 30.3182 68.9548C30.7882 69.0831 31.1147 69.5094 31.1161 69.9966L31.1253 73.0861C31.1317 75.2498 32.8875 77.0003 35.0511 77.0003H35.5001Z" fill="#F58024"/>
<path fill-rule="evenodd" clip-rule="evenodd" d="M66.6928 52.6362L48.8698 52.6362C45.6627 54.9921 41.8416 56.1258 38.0452 56.0293V76.9999H42.0318C44.1576 76.9559 45.8691 75.2222 45.8755 73.0859L45.8848 69.947C45.8861 69.4891 46.1946 69.0892 46.6371 68.9715C49.3018 68.2629 52.0405 67.1281 54.3857 65.7607C54.733 65.5581 55.1733 65.615 55.4578 65.8992L57.7484 68.187C59.2803 69.7171 61.7623 69.7161 63.293 68.185L65.7499 65.7275L68.1991 63.2777C69.7332 61.7432 69.7312 59.255 68.1945 57.723L65.8102 55.3461C65.5753 55.1119 65.5294 54.7482 65.6986 54.463C66.0456 53.8782 66.3779 53.267 66.6928 52.6362Z" fill="#589C48"/>
<path fill-rule="evenodd" clip-rule="evenodd" d="M67.0834 25.2251H49.873C52.114 27.1415 53.8798 29.6279 54.9511 32.5119C56.2443 35.9932 56.3826 39.8963 55.3403 43.5018C54.7547 45.5269 53.7845 47.4719 52.5207 49.1534C52.2836 49.469 52.0301 49.7819 51.7639 50.0888H67.8787C68.3352 48.9145 68.7266 47.7094 69.0379 46.5099C69.1145 46.2145 69.3807 46.0079 69.6859 46.007L73.0841 45.9969C75.2489 45.9905 77.0003 44.2338 77.0003 42.0691V38.6021V35.1337C77.0003 32.9698 75.2495 31.2138 73.0856 31.2074L70.0436 31.1983C69.5287 31.1968 69.0789 30.85 68.9464 30.3525C68.4861 28.6248 67.853 26.8863 67.0834 25.2251Z" fill="#994FB2"/>
<path fill-rule="evenodd" clip-rule="evenodd" d="M65.3152 22.6362C65.1347 22.3177 64.9995 22.0693 64.9995 22.0545C64.9995 22.0372 66.2421 20.7804 67.7608 19.2615C69.2858 17.7363 69.2858 15.2637 67.7607 13.7386L65.295 11.2727L62.8449 8.82257C61.3112 7.28883 58.8246 7.28874 57.2908 8.82238L55.0317 11.0812C54.7266 11.3864 54.2539 11.447 53.8816 11.2288C51.6437 9.91688 48.8366 8.74729 46.2841 8.06315C45.7951 7.93207 45.4551 7.48893 45.455 6.98266L45.4546 3.92046C45.4543 1.75516 43.6989 0 41.5336 0H38.0679H38.0452V20.9761C38.7749 20.9841 39.5754 21.0169 39.9995 21.0661C41.9449 21.2916 43.8009 21.8299 45.5108 22.6362H65.3152Z" fill="#FBB149"/>
</svg>
